{"title":"Hawaii.Five-0.2010.S03E04.HDTV.Xvid-MrX","uid":7732713,"size":367469440,"categoryP":"video","categoryS":"tv_shows","magnet":"?xt=urn:btih:d7663f7a880c424648da5da3fd04320be9debcf9&amp;dn=Hawaii.Five-0.2010.S03E04.HDTV.Xvid-MrX&amp;tr=udp%3A%2F%2Ftracker.openbittorrent.com%3A80&amp;tr=udp%3A%2F%2Fopen.demonii.com%3A1337&amp;tr=udp%3A%2F%2Ftracker.coppersurfer.tk%3A6969&amp;tr=udp%3A%2F%2Fexodus.desync.com%3A6969","seeders":1,"leechers":0,"uploader":"D.N.M","files":-1,"time":1350383526,"description":"Hawaii.Five-0.2010.S03E04.HDTV.Xvid-MrX\n &lt;a href=&quot;\nhttp://www.cbs.com/shows/hawaii_five_0/&quot; rel=&quot;nofollow&quot; target=&quot;_NEW&quot;&gt;\nhttp://www.cbs.com/shows/hawaii_five_0/&lt;/a&gt;\n\n\n\nGeneral\nComplete name                            : Hawaii.Five-0.2010.S03E04.HDTV.Xvid-MrX.avi\nFormat                                   : AVI\nFormat/Info                              : Audio Video Interleave\nFile size                                : 349 MiB\nDuration                                 : 41mn 33s\nOverall bit rate mode                    : Variable\nOverall bit rate                         : 1 174 Kbps\n\nVideo\nID                                       : 0\nFormat                                   : MPEG-4 Visual\nFormat profile                           : Advanced Simple@L5\nFormat settings, BVOP                    : 1\nFormat settings, QPel                    : No\nFormat settings, GMC                     : No warppoints\nFormat settings, Matrix                  : Default (H.263)\nMuxing mode                              : Packed bitstream\nCodec ID                                 : XVID\nCodec ID/Hint                            : XviD\nDuration                                 : 41mn 33s\nBit rate                                 : 1 015 Kbps\nWidth                                    : 640 pixels\nHeight                                   : 352 pixels\nDisplay aspect ratio                     : 16:9\nFrame rate                               : 23.976 fps\nColor space                              : YUV\nChroma subsampling                       : 4:2:0\nBit depth                                : 8 bits\nScan type                                : Progressive\nCompression mode                         : Lossy\nBits/(Pixel*Frame)                       : 0.188\nStream size                              : 302 MiB (86%)\nWriting library                          : XviD 1.2.1 (UTC 2008-12-04)\n\nAudio\nID                                       : 1\nFormat                                   : MPEG Audio\nFormat version                           : Version 1\nFormat profile                           : Layer 3\nCodec ID                                 : 55\nCodec ID/Hint                            : MP3\nDuration                                 : 41mn 33s\nBit rate mode                            : Variable\nBit rate                                 : 147 Kbps\nMinimum bit rate                         : 128 Kbps\nChannel(s)                               : 2 channels\nSampling rate                            : 48.0 KHz\nCompression mode                         : Lossy\nStream size                              : 43.7 MiB (13%)\nAlignment                                : Aligned on interleaves\nInterleave, duration                     : 24 ms (0.58 video frame)\nInterleave, preload duration             : 57 ms\nTitle                                    : Hawaii.Five-0.2010.S03E04\nWriting library                          : LAME3.99r\nEncoding settings                        : -m s -V 4 -q 0 -lowpass 17.5 --vbr-mt -b 128\n","torrent":{"xt":"urn:btih:d7663f7a880c424648da5da3fd04320be9debcf9","amp;dn":"Hawaii.Five-0.2010.S03E04.HDTV.Xvid-MrX","amp;tr":["udp%3A%2F%2Ftracker.openbittorrent.com%3A80","udp%3A%2F%2Fopen.demonii.com%3A1337","udp%3A%2F%2Ftracker.coppersurfer.tk%3A6969","udp%3A%2F%2Fexodus.desync.com%3A6969"],"infoHash":"d7663f7a880c424648da5da3fd04320be9debcf9","infoHashBuffer":{"type":"Buffer","data":[215,102,63,122,136,12,66,70,72,218,93,163,253,4,50,11,233,222,188,249]},"announce":[],"urlList":[]}}